<svg xmlns="http://www.w3.org/2000/svg" fill="none" viewBox="0 0 24 24"><circle cx="12" cy="12" r="12" fill="#121212"/><path fill="#cdcdcd" fill-opacity=".1" fill-rule="evenodd" d="M16.685 17.467a7.2 7.2 0 1 0-9.371 0l-1.563 1.822A9.58 9.58 0 0 1 2.4 12 9.6 9.6 0 0 1 12 2.4a9.6 9.6 0 0 1 9.6 9.6 9.58 9.58 0 0 1-3.352 7.29z" clip-rule="evenodd"/><path fill="#1ce400" fill-rule="evenodd" d="m5.257 14.53-2.249.842a9.6 9.6 0 0 0 2.743 3.917l1.563-1.822a7.2 7.2 0 0 1-2.057-2.938z" clip-rule="evenodd"/><path fill="#1ce400" d="M10.05 13.157q0-.454.252-.79a1.6 1.6 0 0 1 .655-.512 8 8 0 0 1 .748-.286 2.8 2.8 0 0 0 .663-.302q.235-.16.235-.378v-.698q0-.26-.21-.344-.226-.093-.705-.092-.58 0-1.529.21V9.04a8.5 8.5 0 0 1 1.756-.177q.99 0 1.47.303.486.302.487 1.008v.756q0 .428-.26.747a1.57 1.57 0 0 1-.656.47q-.378.16-.773.286a2.7 2.7 0 0 0-.68.336q-.244.185-.244.437v.277h2.621v.916h-3.83v-1.243z"/></svg>