<svg xmlns="http://www.w3.org/2000/svg" width="178" height="64" fill="none" viewBox="0 0 178 64"><g clip-path="url(#clip_pk)"><path fill="#5c0062" d="M25 0h-4L9 64h4z"/><path fill="url(#p0_pk)" d="M178 0H34L22 64h144z"/><path fill="url(#p1_pk)" d="M176.25 1.5H33.24l-11.584 61h143.01z"/><path fill="#660068" d="M46.114 4H54L40.886 61H33z" opacity=".35"/><path fill="#660068" d="M36.73 4H42L30.27 61H25z"/><path fill="#660068" d="M56.874 4H72L59.126 61H44zm18.907 0H110L97.219 61H63z" opacity=".35"/><path fill="#0e0012" d="M18 0h9l-9 64H3.25z"/><path fill="#d300e6" d="M12 0h9L9 64H0zm13 0h9L22 64h-9z"/><path fill="url(#p2_pk)" d="M25 0h8L21 64h-8z"/><path fill="url(#p3_pk)" d="M25 0h8L21 64h-8z"/><path fill="url(#p4_pk)" d="M12 0h8L8 64H0z"/><path fill="url(#p5_pk)" d="M12 0h8L8 64H0z"/></g><defs><linearGradient id="p0_pk" x1="187.49" x2="30.497" y1="48.729" y2="20.501" gradientUnits="userSpaceOnUse"><stop offset=".905" stop-color="#58005e"/><stop offset="1" stop-color="#3e0044"/></linearGradient><linearGradient id="p1_pk" x1="185.411" x2="26.563" y1="47.945" y2="33.795" gradientUnits="userSpaceOnUse"><stop offset=".863" stop-color="#2e0038" stop-opacity=".44"/><stop offset="1" stop-color="#1c0024"/></linearGradient><linearGradient id="p2_pk" x1="23.5" x2="23.5" y1="1" y2="63" gradientUnits="userSpaceOnUse"><stop stop-color="#d300e6"/><stop offset="1" stop-color="#c200d4"/></linearGradient><linearGradient id="p3_pk" x1="23.5" x2="23.5" y1="1" y2="63" gradientUnits="userSpaceOnUse"><stop stop-color="#d300e6"/><stop offset="1" stop-color="#c200d4"/></linearGradient><linearGradient id="p4_pk" x1="10.5" x2="10.5" y1="1" y2="63" gradientUnits="userSpaceOnUse"><stop stop-color="#d300e6"/><stop offset="1" stop-color="#c200d4"/></linearGradient><linearGradient id="p5_pk" x1="10.5" x2="10.5" y1="1" y2="63" gradientUnits="userSpaceOnUse"><stop stop-color="#d300e6"/><stop offset="1" stop-color="#c200d4"/></linearGradient><clipPath id="clip_pk"><path fill="#fff" d="M0 0h178v64H0z"/></clipPath></defs></svg>